<svg width="1448" height="966" viewBox="0 0 1448 966" fill="none" xmlns="http://www.w3.org/2000/svg">
<g clip-path="url(#clip0_21_377)">
<rect width="1448" height="966" rx="50" fill="white"/>
<path fill-rule="evenodd" clip-rule="evenodd" d="M1158.47 1289.51C1508.64 1319.64 1602.02 930.152 1891.99 903.179C2050.72 888.412 2375.87 904.918 2270.08 353.545C2200.5 -2.17654 1855.34 -28.8013 1551.71 218.279C1459.54 276.2 1378.62 279.112 1285.88 256.683C1193.15 234.253 1050.44 82.4257 836.754 86.315C193.694 98.0205 -152.906 1176.66 1158.47 1289.51Z" fill="#DBAEFF"/>
<path d="M901.139 289.804H789.498C785.36 289.804 782.006 293.155 782.006 297.288V379.604C782.006 383.737 785.36 387.088 789.498 387.088H901.139C905.277 387.088 908.631 383.737 908.631 379.604V297.288C908.631 293.155 905.277 289.804 901.139 289.804Z" fill="#F2F6FB"/>
<path d="M801.635 367.087L820.537 338.363C822.331 335.635 826.264 335.354 828.421 337.799L836.047 346.417C839.527 350.343 845.836 349.741 848.497 345.236L866.684 314.392C868.504 311.302 872.852 311.09 874.996 313.975L894.287 340.252C894.737 340.864 895.597 340.995 896.208 340.545C896.819 340.095 896.95 339.234 896.501 338.622L877.205 312.339C873.888 307.875 867.139 308.205 864.318 312.994L846.131 343.836C844.42 346.734 840.346 347.123 838.103 344.592L830.478 335.976C827.124 332.174 821.032 332.61 818.243 336.849L799.341 365.574C798.923 366.208 799.098 367.061 799.732 367.479C800.365 367.897 801.217 367.721 801.635 367.087Z" fill="#E1E5F0"/>
<path d="M809.354 357.077C811.63 357.077 813.475 355.23 813.475 352.951C813.475 350.672 811.63 348.824 809.354 348.824C807.078 348.824 805.233 350.672 805.233 352.951C805.233 355.23 807.078 357.077 809.354 357.077Z" fill="#3ABF7C"/>
<path d="M855.309 334.82C857.585 334.82 859.43 332.972 859.43 330.693C859.43 328.414 857.585 326.567 855.309 326.567C853.033 326.567 851.188 328.414 851.188 330.693C851.188 332.972 853.033 334.82 855.309 334.82Z" fill="#FFCB3D"/>
<path d="M665.121 289.804H542.616C541.375 289.804 540.369 290.809 540.369 292.049V384.843C540.369 386.082 541.375 387.088 542.616 387.088H665.121C666.362 387.088 667.369 386.082 667.369 384.843V292.049C667.369 290.809 666.362 289.804 665.121 289.804Z" fill="#F2F6FB"/>
<path d="M641.611 342.072H646.034C647.704 342.072 648.309 342.246 648.92 342.572C649.53 342.898 650.009 343.377 650.336 343.986C650.662 344.596 650.836 345.201 650.836 346.869V387.088H636.809V346.869C636.809 345.201 636.982 344.596 637.309 343.986C637.635 343.377 638.115 342.898 638.725 342.572C639.336 342.246 639.941 342.072 641.611 342.072Z" fill="#D8DEED"/>
<path d="M625.58 352.826H630.253C631.923 352.826 632.528 353 633.139 353.326C633.749 353.652 634.229 354.131 634.555 354.74C634.882 355.35 635.055 355.955 635.055 357.623V387.088H620.777V357.623C620.777 355.955 620.951 355.35 621.278 354.74C621.604 354.131 622.083 353.652 622.694 353.326C623.304 353 623.91 352.826 625.58 352.826Z" fill="#D8DEED"/>
<path d="M609.799 319.314H614.221C615.891 319.314 616.497 319.488 617.107 319.814C617.718 320.14 618.197 320.619 618.523 321.229C618.85 321.838 619.024 322.443 619.024 324.111V387.088H604.996V324.111C604.996 322.443 605.17 321.838 605.496 321.229C605.823 320.619 606.302 320.14 606.913 319.814C607.523 319.488 608.129 319.314 609.799 319.314Z" fill="#E1E5F0"/>
<path d="M593.767 328.067H598.189C599.859 328.067 600.465 328.241 601.075 328.567C601.686 328.893 602.165 329.372 602.492 329.982C602.818 330.591 602.992 331.196 602.992 332.864V387.088H588.964V332.864C588.964 331.196 589.138 330.591 589.465 329.982C589.791 329.372 590.27 328.893 590.881 328.567C591.491 328.241 592.097 328.067 593.767 328.067Z" fill="#D8DEED"/>
<path d="M577.986 348.574H582.409C584.079 348.574 584.684 348.748 585.295 349.074C585.905 349.4 586.384 349.879 586.711 350.488C587.037 351.098 587.211 351.703 587.211 353.371V387.087H573.184V353.371C573.184 351.703 573.357 351.098 573.684 350.488C574.01 349.879 574.49 349.4 575.1 349.074C575.711 348.748 576.316 348.574 577.986 348.574Z" fill="#D8DEED"/>
<path d="M561.954 338.321H566.377C568.047 338.321 568.652 338.494 569.263 338.821C569.873 339.147 570.353 339.625 570.679 340.235C571.006 340.845 571.179 341.45 571.179 343.117V387.088H557.152V343.117C557.152 341.45 557.326 340.845 557.652 340.235C557.979 339.625 558.458 339.147 559.068 338.821C559.679 338.494 560.284 338.321 561.954 338.321Z" fill="#D8DEED"/>
<path d="M986.442 584.877V584.947C986.442 585.845 985.655 586.593 984.756 586.593H956.471L966.437 604.853C973.555 617.874 980.635 630.857 987.716 643.878L999.442 665.355C999.854 666.104 999.516 667.076 998.73 667.525L998.58 667.6C997.793 668.049 996.782 667.787 996.407 667.076L952.538 586.593H923.316L879.447 667.076C879.073 667.787 878.061 668.012 877.274 667.6L877.124 667.525C876.338 667.076 876.001 666.104 876.413 665.355L888.139 643.878C895.257 630.857 902.337 617.874 909.418 604.853L919.383 586.593H881.882C880.946 586.593 880.196 585.845 880.196 584.947V584.76C880.196 583.862 880.983 583.113 881.882 583.113H907.357C923.953 583.113 940.587 583.113 957.221 583.113H983.134L986.292 557.595C988.465 540.234 990.6 522.835 992.773 505.436L996.332 476.7C996.445 475.69 997.306 474.942 998.243 475.054L998.43 475.092C999.329 475.204 999.966 476.139 999.854 477.075L986.479 584.685C986.47 584.75 986.457 584.814 986.442 584.877Z" fill="#D8DEED"/>
<path d="M623.707 522.727C623.333 523.386 622.625 523.831 621.814 523.831H567.98C566.781 523.831 565.844 522.858 565.844 521.661C565.844 520.463 566.818 519.49 567.98 519.49H620.344L638.598 470.437C639.01 469.315 640.246 468.753 641.37 469.165C642.494 469.577 643.056 470.811 642.644 471.934L623.875 522.372C623.829 522.497 623.772 522.616 623.707 522.727Z" fill="#474961"/>
<path d="M471.924 584.503V584.573C471.924 585.471 472.711 586.219 473.61 586.219H501.895L491.929 604.479C484.811 617.5 477.731 630.483 470.65 643.504L458.924 664.981C458.512 665.73 458.849 666.702 459.636 667.151L459.786 667.226C460.573 667.675 461.584 667.413 461.959 666.702L505.828 586.219H535.049L578.919 666.702C579.293 667.413 580.305 667.638 581.091 667.226L581.241 667.151C582.028 666.702 582.365 665.73 581.953 664.981L570.227 643.504C563.109 630.483 556.029 617.5 548.948 604.479L538.982 586.219H576.483C577.42 586.219 578.169 585.471 578.169 584.573V584.386C578.169 583.488 577.383 582.739 576.483 582.739H551.009C534.412 582.739 517.779 582.739 501.145 582.739H475.232L472.074 557.221C469.901 539.86 467.765 522.461 465.593 505.062L462.034 476.326C461.921 475.316 461.06 474.568 460.123 474.68L459.936 474.718C459.037 474.83 458.4 475.765 458.512 476.701L471.886 584.311C471.896 584.376 471.909 584.44 471.924 584.503Z" fill="#D8DEED"/>
<path d="M698.988 586.444H669.354C668.455 586.444 667.669 585.695 667.669 584.797V584.61C667.669 583.712 668.455 582.964 669.429 582.964H696.89C713.524 582.964 730.157 582.964 746.753 582.964H772.228C773.127 582.964 773.914 583.712 773.914 584.61V584.797C773.914 585.695 773.165 586.444 772.228 586.444H736.076L746.042 604.703C753.122 617.724 760.203 630.708 767.321 643.729L779.047 665.206C779.459 665.954 779.121 666.927 778.335 667.376L778.185 667.451C777.398 667.862 776.387 667.638 776.012 666.927L732.143 586.444H702.921L659.052 666.927C658.678 667.638 657.666 667.9 656.879 667.451L656.729 667.376C655.943 666.927 655.606 665.954 656.018 665.206L667.744 643.729C674.824 630.708 681.905 617.724 689.023 604.703L698.988 586.444ZM667.781 571.781V550.026C667.781 533.433 667.781 516.879 667.781 500.325V480.554C667.781 477.455 670.297 474.942 673.401 474.942H734.54C737.644 474.942 740.16 477.455 740.16 480.554V571.845C740.16 574.945 737.644 577.458 734.54 577.458C734.538 577.458 734.536 577.458 734.534 577.458L673.395 577.393C670.293 577.39 667.781 574.878 667.781 571.781Z" fill="#D8DEED"/>
<path d="M788.262 667.713H728.733C727.796 667.713 727.047 666.964 727.047 666.029C727.047 665.094 727.796 664.345 728.733 664.345H788.262C789.198 664.345 789.948 665.094 789.948 666.029C789.948 666.964 789.198 667.713 788.262 667.713ZM679.169 667.713C678.233 667.713 677.483 667.065 677.483 666.288V665.77C677.483 664.993 678.27 664.345 679.169 664.345H717.569C718.506 664.345 719.255 664.993 719.255 665.77V666.288C719.255 667.065 718.468 667.713 717.569 667.713H679.169Z" fill="#A339FF"/>
<path d="M788.852 664.449C788.669 664.382 788.47 664.345 788.262 664.345H728.733C728.462 664.345 728.207 664.408 727.98 664.519C727.934 664.357 727.909 664.186 727.909 664.008L729.22 643.317C729.146 642.194 730.007 641.334 731.094 641.296L754.958 641.146C755.37 641.146 755.744 641.259 756.081 641.521C760.352 646.085 764.436 648.63 767.395 650.126C769.681 651.286 777.323 654.504 780.77 656.076C782.53 656.861 784.216 657.797 785.865 658.807C785.977 658.882 786.052 658.919 786.164 659.032C787.026 659.817 788.337 661.239 788.824 662.923C788.899 663.147 788.899 663.335 788.937 663.559C788.974 663.746 788.937 663.933 788.937 664.12V664.158C788.916 664.258 788.887 664.356 788.852 664.449ZM717.785 664.356C717.715 664.349 717.643 664.345 717.569 664.345H679.17C679.168 664.345 679.167 664.345 679.165 664.345L687.861 641.184L714.685 644.813L717.785 664.356Z" fill="#474961"/>
<path d="M727.321 576.61C726.026 577.549 724.896 578.366 723.932 579.061L723.451 587.005C723.226 591.207 722.964 594.897 722.664 598.148C722.439 600.705 719.555 629.676 718.506 640.307C718.281 642.718 716.67 644.764 714.46 645.422C711.125 646.445 686.1 645.276 685.163 644.837C683.965 644.289 683.328 644.034 682.691 643.413C680.443 641.294 680.593 637.933 680.555 636.69C680.331 627.301 679.656 599.061 679.656 579.297C679.656 579.232 679.656 579.167 679.656 579.102C677.186 576.985 675.003 573.8 673.293 569.845C670.694 563.871 669.108 556.1 669.064 547.666C669.064 547.562 669.064 542.485 669.064 532.437C669.064 532.398 669.064 532.398 669.064 532.359C669.108 529.587 671.751 527.4 674.879 527.4H709.463C714.265 527.556 719.023 527.712 723.825 527.868C731.299 528.066 741.932 528.356 755.725 528.738C761.119 528.887 765.991 531.993 768.397 536.817C769.544 539.114 770.24 541.003 770.487 542.483C771.97 545.099 772.79 548.157 772.715 551.412C772.715 551.485 772.715 551.522 772.715 551.595C772.115 581.595 765.11 624.331 764.623 638.784C764.585 639.331 764.435 640.536 763.649 641.813C761.214 645.718 755.519 644.842 742.22 645.171C730.906 645.463 726.335 646.339 724.013 643.127C722.739 641.375 722.776 639.368 722.814 638.455C723.865 617.68 725.459 596.683 727.321 576.61Z" fill="#474BFF"/>
<path opacity="0.176986" d="M727.309 576.748C726.01 577.689 724.882 578.505 723.925 579.195L725.362 555.477C725.399 553.833 725.587 543.896 718.132 537.576C712.699 533.009 706.106 532.717 701.723 532.535C694.979 532.242 689.735 534.142 688.723 534.507C687.449 534.982 686.812 535.238 686.176 535.567C678.908 539.366 679.47 557.633 679.545 560.957C679.618 565.094 679.656 571.498 679.657 578.948C677.26 576.831 675.14 573.705 673.471 569.845C670.872 563.871 669.286 556.1 669.242 547.666C669.242 547.562 669.242 542.485 669.242 532.437C669.242 532.398 669.242 532.398 669.242 532.359C669.286 529.587 671.93 527.4 675.057 527.4H709.641C714.443 527.556 719.201 527.712 724.003 527.868C731.477 528.066 742.111 528.356 755.904 528.738C761.297 528.887 766.169 531.993 768.575 536.817C769.838 539.346 770.555 541.38 770.727 542.919C767.872 537.522 762.245 533.879 755.782 534.004C752.635 534.077 749.526 534.15 746.379 534.223C737.95 534.442 730.944 540.975 730.045 549.515C729.094 558.318 728.173 567.434 727.309 576.748Z" fill="#444444"/>
<path d="M717.821 449.937C720.752 449.99 725.365 450.545 729.921 453.19C730.707 453.638 731.866 454.384 733.138 455.466C734.222 456.4 737.401 459.498 740.431 468.232C741.516 471.293 744.695 477.265 746.527 480.55C747.126 481.632 746.415 482.976 745.143 483.088C741.135 483.375 736.191 485.018 731.519 485.027C731.903 492.01 732.174 500.338 732.278 509.627C732.278 509.627 732.876 520.682 729.435 524.265C728.839 524.896 717.666 524.239 705.798 524.616C693.07 525.02 679.512 526.329 676.358 523.027C671.256 517.685 674.173 516.239 678.855 485.812C678.121 485.887 677.438 485.954 676.83 486.01C672.101 486.458 662.197 486.159 657.43 485.972C656.164 485.935 655.345 484.513 655.866 483.316C657.43 479.687 660.186 473.14 661.005 469.81C663.351 460.308 666.292 456.829 667.298 455.781C668.452 454.584 669.611 453.769 670.314 453.2C672.671 451.29 680.106 449.912 692.618 449.066C698.011 447.232 704.168 447.759 708.154 448.113C710.941 448.366 714.455 448.678 717.821 449.937Z" fill="#A339FF"/>
<path opacity="0.176986" d="M717.944 449.947C720.889 450.044 725.306 450.663 729.671 453.198C730.458 453.647 731.62 454.396 732.893 455.481C733.98 456.416 737.164 459.522 740.199 468.277C741.285 471.345 744.694 477.251 746.53 480.543C747.129 481.628 746.417 482.975 745.144 483.088C743.973 483.172 742.655 483.416 741.402 483.622C740.905 483.704 739.535 483.864 738.924 483.992C735.971 484.614 734.251 485.027 731.499 485.027C731.485 485.027 731.47 485.027 731.456 485.027C730.863 474.26 730.001 466.689 729.071 463.719C728.434 461.698 727.51 459.379 727.51 459.379C727.061 458.069 726.336 456.722 724.875 454.888C722.905 452.446 720.471 450.924 717.944 449.947ZM709.126 453.937C708.452 457.903 707.215 459.074 707.215 459.074C704.368 457.428 694.216 452.291 695.152 449.484C695.227 449.297 695.377 448.923 696.351 448.325C700.022 446.08 704.518 447.165 706.091 447.614C706.091 447.614 713.322 446.79 714.708 451.019C716.094 455.247 714.446 458.24 714.446 458.24C713.247 457.517 711.474 456.082 709.126 453.937Z" fill="#444444"/>
<path d="M732.231 515.185L731.499 485.027L741.425 483.622L744.458 520.602C744.718 520.737 744.971 520.87 745.216 521.001C747.363 522.15 749.142 524.242 750.553 527.277C750.625 527.43 750.66 527.598 750.658 527.766C750.649 528.386 750.139 528.882 749.518 528.873L670.626 527.732C651.792 524.002 656.915 498.488 660.603 486.091C665.779 486.253 673.09 486.382 676.959 486.017C680.615 485.685 686.963 484.954 690.696 484.395L684.002 504.426C701.978 505.317 719.631 510.318 732.231 515.185ZM711.22 445.178L711.051 452.08C703.884 454.72 698.8 450.658 698.8 450.658C698.8 450.658 699.069 445.514 699.607 435.226C699.52 435.04 699.436 434.844 699.354 434.635C698.679 432.951 696.252 427.423 696.777 425.515C696.873 425.112 694.871 419.115 697.803 416.09C700.587 413.217 708.305 413.298 708.615 413.317C709.927 413.354 711.238 413.317 712.661 413.017C712.811 413.017 712.961 412.98 713.111 412.98C714.385 412.868 721.54 412.531 725.212 417.844C725.549 418.293 725.848 418.779 726.111 419.378C726.673 420.762 726.935 422.259 726.823 423.756L726.298 430.416C726.223 431.089 726.111 431.763 725.961 432.399C724.874 437.114 723.114 440.967 721.24 443.4C719.854 445.233 718.356 446.281 717.045 446.318C716.67 446.355 714.647 446.318 712.287 445.607C712.133 445.556 712.172 445.592 711.22 445.178Z" fill="#F2A98A"/>
<path d="M691.636 484.333C691.512 484.617 691.181 484.747 690.896 484.624C690.612 484.5 690.481 484.169 690.605 483.885C691.33 482.219 691.622 481.288 692.184 478.857C692.254 478.555 692.555 478.366 692.858 478.436C693.16 478.506 693.349 478.807 693.279 479.109C692.703 481.603 692.391 482.598 691.636 484.333ZM684.399 503.643C684.708 503.614 684.982 503.84 685.012 504.149C685.041 504.457 684.814 504.731 684.505 504.76C684.432 504.767 684.289 504.783 684.086 504.81C683.746 504.856 683.365 504.916 682.955 504.992C681.783 505.21 680.613 505.514 679.526 505.917C678.884 506.154 678.29 506.42 677.755 506.714C677.483 506.863 677.141 506.764 676.992 506.493C676.842 506.221 676.941 505.88 677.213 505.73C677.8 505.408 678.444 505.12 679.135 504.864C680.289 504.437 681.519 504.118 682.749 503.889C683.179 503.809 683.578 503.746 683.937 503.698C684.064 503.681 684.176 503.667 684.274 503.656C684.334 503.649 684.376 503.645 684.399 503.643Z" fill="#482D1F"/>
<path opacity="0.2" d="M744.393 520.64C741.301 519.026 737.128 517.128 732.163 515.206L731.431 485.027L741.357 483.623L744.393 520.64Z" fill="#8C2A00"/>
<path d="M711.23 445.189L711.125 449.012L705.953 442.813C706.027 442.849 706.102 442.886 706.18 442.924C706.93 443.298 707.866 443.71 709.065 444.233C710.115 444.701 710.789 444.998 711.23 445.189Z" fill="#482D1F"/>
<path d="M707.076 427.394L707.042 426.674C707.042 426.674 706.892 425.327 705.956 423.98C705.881 423.906 705.244 423.082 704.27 422.671C702.509 421.997 700.187 422.783 698.913 424.392C697.564 426.038 697.564 428.246 698.276 429.93C698.988 431.613 700.374 432.399 700.861 432.624L703.034 433.297L703.043 433.293C701.144 436.074 699.491 438.498 699.491 438.498C699.491 438.498 696.365 435.617 694.979 433.335C694.305 432.212 691.907 429.481 691.495 425.178C691.383 423.756 690.933 418.929 694.155 415.375C695.279 414.14 696.553 413.541 697.077 413.279C700.037 411.97 702.21 412.755 707.904 412.868C708.353 412.868 709.103 412.905 710.077 412.868C711.838 412.83 713.074 412.755 713.411 412.755C716.221 412.643 722.327 413.504 725.025 417.657C725.174 417.956 725.362 418.218 725.512 418.443C724.725 418.705 723.863 419.191 722.814 419.378C719.967 419.827 717.532 419.266 716.071 418.742C713.224 421.436 710.339 424.093 707.492 426.787C707.362 426.977 707.223 427.18 707.076 427.394Z" fill="#DE6903"/>
<path d="M724.135 431.586C724.247 431.137 724.697 430.801 725.146 430.875C725.446 430.913 725.671 431.137 725.783 431.661C725.895 432.971 724.472 434.617 724.06 433.831C723.798 433.307 724.022 432.222 724.135 431.586ZM716.22 430.566C716.333 430.117 716.782 429.78 717.232 429.855C717.531 429.892 717.756 430.117 717.869 430.64C717.981 431.95 716.557 433.596 716.145 432.811C715.846 432.287 716.07 431.202 716.22 430.566Z" fill="#482D1F"/>
<path d="M721.578 431.842L721.615 435.583C721.615 435.598 721.558 435.655 721.54 435.655C721.336 435.655 721.126 435.641 720.799 435.61C720.736 435.603 720.669 435.597 720.574 435.587C720.453 435.575 720.387 435.568 720.324 435.562C720.108 435.54 719.929 435.523 719.737 435.506C719.531 435.488 719.349 435.641 719.332 435.847C719.314 436.053 719.466 436.234 719.672 436.252C719.86 436.268 720.036 436.285 720.249 436.306C720.312 436.313 720.377 436.319 720.498 436.332C720.595 436.341 720.662 436.348 720.727 436.354C721.076 436.388 721.306 436.403 721.54 436.403C721.972 436.403 722.365 436.011 722.365 435.58L722.327 431.834C722.325 431.628 722.156 431.462 721.949 431.464C721.742 431.466 721.576 431.635 721.578 431.842Z" fill="#482D1F"/>
<path d="M718.955 438.386C718.693 438.273 718.056 437.974 718.019 437.6C718.019 437.525 717.981 437.413 718.056 437.375C718.243 437.188 718.693 437.375 719.367 437.562C720.566 437.862 721.54 437.937 721.54 437.937C721.54 437.937 721.166 438.535 720.941 438.685C720.491 439.097 719.33 438.573 718.955 438.386Z" fill="#482D1F"/>
<path d="M720.618 432.251C720.02 434.533 717.943 436.216 715.471 436.216C712.533 436.216 710.151 433.837 710.151 430.903C710.151 430.252 710.268 429.629 710.483 429.053L707.513 427.775C707.217 427.683 707.051 427.369 707.143 427.073C707.235 426.777 707.55 426.611 707.847 426.703L710.981 428.052C711.925 426.571 713.584 425.589 715.471 425.589C718.409 425.589 720.791 427.968 720.791 430.903C720.791 430.982 720.789 431.061 720.786 431.14L721.954 431.261C722.462 428.855 724.6 427.049 727.16 427.049C730.098 427.049 732.479 429.427 732.479 432.362C732.479 435.296 730.098 437.675 727.16 437.675C724.227 437.675 721.848 435.305 721.84 432.378L720.618 432.251ZM711.667 429.133C711.416 429.67 711.275 430.27 711.275 430.903C711.275 433.217 713.154 435.093 715.471 435.093C717.788 435.093 719.667 433.217 719.667 430.903C719.667 428.588 717.788 426.712 715.471 426.712C713.88 426.712 712.496 427.596 711.784 428.9C711.782 428.912 711.778 428.924 711.774 428.936C711.751 429.011 711.714 429.077 711.667 429.133ZM722.976 432.043C722.968 432.148 722.964 432.254 722.964 432.362C722.964 434.676 724.842 436.552 727.16 436.552C729.477 436.552 731.356 434.676 731.356 432.362C731.356 430.047 729.477 428.171 727.16 428.171C725.026 428.171 723.265 429.761 722.999 431.82C723.002 431.857 723.002 431.895 722.998 431.933C722.994 431.971 722.987 432.008 722.976 432.043Z" fill="#482D1F"/>
<path d="M532.873 667.376C532.836 667.352 532.799 667.327 532.764 667.3L495.151 639.313C494.402 638.751 494.252 637.666 494.814 636.918C495.376 636.17 496.462 636.02 497.211 636.581L534.422 664.27H554.68C555.616 664.27 556.403 665.055 556.403 665.991C556.403 666.926 555.616 667.712 554.68 667.712H533.888C533.507 667.712 533.157 667.588 532.873 667.376ZM652.646 667.712H593.117C592.18 667.712 591.431 666.964 591.431 666.028C591.431 665.093 592.18 664.344 593.117 664.344H652.646C653.582 664.344 654.332 665.093 654.332 666.028C654.332 666.964 653.582 667.712 652.646 667.712Z" fill="#DE3190"/>
<path d="M653.024 664.48C652.849 664.419 652.659 664.385 652.461 664.385H592.932C592.775 664.385 592.623 664.406 592.479 664.446C592.36 664.201 592.293 663.926 592.293 663.634L591.731 642.943C591.656 641.82 592.517 640.959 593.604 640.922L619.341 640.772C619.753 640.772 620.128 640.885 620.465 641.147C624.736 645.711 628.819 648.256 631.779 649.752C634.064 650.912 641.707 654.13 645.153 655.702C646.914 656.487 648.6 657.423 650.248 658.433C650.36 658.508 650.435 658.545 650.548 658.658C651.409 659.443 652.721 660.865 653.208 662.549C653.283 662.773 653.283 662.96 653.32 663.185C653.358 663.372 653.32 663.559 653.32 663.746V663.784C653.267 664.04 653.164 664.275 653.024 664.48ZM555.253 664.491C555.023 664.376 554.765 664.31 554.495 664.31H534.237L497.168 636.727L511.148 616.938L533.7 633.289C534.937 637.48 536.21 641.67 537.484 645.898C538.158 648.106 538.833 650.276 539.507 652.446C541.605 653.27 543.403 654.018 544.677 654.579C547.112 655.627 549.173 656.6 551.42 658.059C551.42 658.059 553.368 659.256 554.455 660.977C554.792 661.539 555.092 662.175 555.279 662.848C555.354 663.148 555.354 663.447 555.391 663.709C555.38 663.954 555.324 664.229 555.253 664.491Z" fill="#474961"/>
<path d="M602.688 528.669L612.92 528.535C615.992 528.348 619.85 530.256 622.735 532.426C623.334 532.875 623.859 533.362 624.346 533.886C624.795 534.372 625.245 534.896 625.62 535.457C627.268 537.814 628.13 540.621 628.092 543.502C628.017 549.75 627.268 554.614 626.781 556.223C623.597 566.064 615.43 602.994 623.634 618.971C623.634 618.971 627.792 627.016 626.893 633.04C626.547 635.461 625.215 638.293 624.798 639.136C624.808 639.149 624.817 639.161 624.827 639.174C621.696 643.685 582.802 650.314 552.919 640.51C548.837 639.171 542.879 637.629 536.06 634.599C535.761 634.486 535.461 634.337 535.199 634.15C530.591 631.194 525.983 628.275 521.375 625.319L509.799 617.911C507.589 616.489 506.952 613.645 508.375 611.587L517.778 597.893L523.398 589.699C524.971 587.379 526.62 584.984 528.306 582.552C529.108 582.578 527.659 582.515 523.96 582.365C511.063 581.841 494.252 579.372 487.883 569.157C484.661 563.956 484.099 558.493 483.837 555.986C482.376 541.356 489.684 533.82 492.079 531.441C493.675 529.855 497.695 527.31 504.138 523.806L546.083 526.277L586.561 527.774C586.629 527.74 595.034 527.122 602.688 528.669Z" fill="#FFCB3D"/>
<path opacity="0.2" d="M602.558 528.67L612.92 528.535C615.992 528.348 619.85 530.256 622.735 532.426C623.334 532.875 623.859 533.361 624.346 533.885C624.795 534.372 625.245 534.896 625.62 535.457C627.268 537.814 628.13 540.62 628.092 543.501C628.017 549.75 627.268 554.614 626.781 556.223C623.597 566.064 615.43 602.994 623.634 618.971C623.634 618.971 627.793 627.015 626.893 633.039C626.542 635.498 625.173 638.381 624.78 639.174C621.403 634.664 608.041 614.079 613.336 578.887C613.486 577.989 616.772 558.59 616.772 553.24C616.772 533.916 612.086 531.166 603.959 529.011C603.497 528.888 603.029 528.775 602.558 528.67Z" fill="#8C2A00"/>
<path d="M545.513 557.556C543.664 560.349 541.718 563.062 536.991 569.52C532.249 575.999 530.296 578.72 528.429 581.54C528.201 581.885 528.296 582.35 528.641 582.577C528.987 582.805 529.451 582.711 529.68 582.366C531.528 579.573 533.475 576.86 538.201 570.403C542.943 563.924 544.896 561.202 546.763 558.382C546.991 558.037 546.896 557.573 546.551 557.345C546.206 557.117 545.741 557.212 545.513 557.556Z" fill="#482D1F"/>
<path d="M526.567 455.596C529.489 455.399 533.241 455.939 536.473 459.046C539.62 462.039 538.121 464.658 542.842 472.665C545.202 476.632 547.449 479.251 546.625 481.72C546.326 482.643 545.439 483.504 543.965 484.302C540.694 484.726 538.683 484.975 537.934 485.05C537.732 485.069 537.501 485.091 537.263 485.115L536.66 495.671L536.623 496.045L535.574 514.641L535.349 518.271C535.349 518.57 535.311 518.832 535.274 519.131C535.236 519.468 535.199 519.767 535.162 520.104C535.049 520.965 534.862 521.788 534.637 522.611C534.525 522.948 534.45 523.284 534.3 523.621L496.013 523.322L491.912 485.116C488.876 485.012 485.647 484.901 482.226 484.783C480.403 484.109 479.304 483.323 478.929 482.425C477.918 479.993 480.765 477.15 483.725 472.884C489.681 464.353 487.846 461.846 491.742 458.516C496.905 454.1 502.172 453.442 505.74 453.683C505.819 453.66 505.898 453.637 505.978 453.615C507.851 453.091 509.874 452.866 511.934 452.978L520.176 453.502C522.449 453.623 524.599 454.381 526.567 455.596Z" fill="#DE3190"/>
<path opacity="0.176986" d="M526.431 455.606C529.372 455.382 533.191 455.891 536.473 459.046C539.62 462.039 538.121 464.658 542.841 472.665C545.202 476.631 547.449 479.251 546.625 481.72C546.325 482.643 545.439 483.504 543.965 484.302C540.694 484.726 538.683 484.975 537.934 485.05C537.685 485.073 537.391 485.102 537.095 485.132L537.655 475.344C537.018 468.273 533.234 460.677 527.765 456.524C527.33 456.195 526.885 455.888 526.431 455.606Z" fill="#444444"/>
<path d="M535.844 506.893L536.456 496.036L536.493 495.661L537.099 485.069L543.318 484.308L545.254 507.698C549.382 508.035 553.536 508.354 557.714 508.654C562.247 508.991 566.78 509.29 571.238 509.552C571.854 509.194 576.988 508.721 582.903 509.552C584.721 509.808 587.389 510.553 590.906 511.789C597.575 513.739 602.05 515.123 604.33 515.943C607.751 517.172 604.33 519.468 599.56 519.468C598.601 519.468 584.93 519.97 580.957 520.528C581.025 520.519 581.095 520.509 581.168 520.5L583.509 521.135C584.715 521.43 585.866 521.877 586.993 522.511C587.999 523.075 589.005 523.639 590.011 524.203C590.286 524.381 590.535 524.672 590.668 525.041C591.095 526.15 590.967 528.152 590.011 528.148L531.927 526.366C532.902 526.294 533.875 526.218 534.847 526.14C525.921 526.796 516.976 527.202 506.839 527.138C500.92 527.101 499.421 526.914 497.623 525.978C489.906 521.975 488.407 510.375 487.171 500.235C486.661 496.305 486.28 491.136 486.528 484.986C498.439 485.396 507.76 485.712 514.491 485.935C514.489 486.237 514.486 486.527 514.482 486.803C514.444 490.694 514.332 494.286 514.669 499.599C514.819 501.807 514.856 503.64 514.931 504.838C521.821 505.578 528.793 506.263 535.844 506.893ZM523.513 451.458L523.003 453.432C524.756 454.089 526.277 455.318 527.931 456.57C527.706 457.543 527.294 458.216 526.807 458.703C523.847 461.659 514.382 459.152 505.203 453.539C505.959 453.328 507.999 452.498 511.634 452.398C511.928 452.39 512.271 452.39 512.664 452.398C513.539 450.59 514.38 448.956 515.298 446.934C515.284 446.926 515.274 446.92 515.268 446.917L516.205 440.107C516.167 439.695 516.28 440.032 515.905 439.882C514.969 439.546 514.144 438.909 513.508 438.086C512.421 436.59 512.196 434.494 512.946 432.623C513.807 430.865 515.868 429.593 517.666 429.892C518.34 430.004 518.94 430.304 519.502 430.753L519.539 430.79C519.726 430.977 519.989 431.052 520.214 431.089C520.85 431.127 521.412 430.715 521.487 430.079L522.536 420.351C522.574 419.715 522.199 419.441 522.836 419.478C523.76 419.553 525.288 419.553 527.419 419.478C527.607 419.478 529.052 419.478 529.201 419.478C530.097 419.627 536.96 419.266 540.444 424.878C540.743 425.439 541.043 425.963 541.268 426.525C541.83 427.909 542.017 429.443 541.83 430.977L540.931 437.75C540.818 438.423 540.668 439.097 540.481 439.77C538.083 448.039 533.85 453.577 530.628 453.539C528.98 453.465 527.331 453.165 525.796 452.567C525.594 452.466 525.724 452.546 523.513 451.458Z" fill="#DB9E75"/>
<path opacity="0.2" d="M535.661 507.09L536.281 496.098L536.319 495.724L536.925 485.114L543.319 484.309L545.111 507.898C541.946 507.64 538.796 507.371 535.661 507.09ZM581.155 520.542L583.281 521.115C584.487 521.41 585.678 521.8 586.806 522.434C587.812 522.998 589.005 523.639 590.011 524.203C590.286 524.381 590.535 524.672 590.668 525.042C591.095 526.15 590.967 528.153 590.011 528.148L531.783 526.426C539.598 525.848 547.302 525.061 555.675 524.266C558.26 524.041 579.526 521.085 580.725 520.599C580.857 520.58 581.001 520.561 581.155 520.542Z" fill="#8C2A00"/>
<path d="M510.193 505.77C509.884 505.801 509.608 505.577 509.577 505.269C509.546 504.96 509.771 504.685 510.079 504.653L514.875 504.167C515.183 504.136 515.459 504.36 515.491 504.669C515.522 504.977 515.297 505.252 514.988 505.284L510.193 505.77ZM514.349 486.159C514.043 486.106 513.838 485.816 513.891 485.51C513.943 485.205 514.234 485 514.54 485.052C514.552 485.054 514.586 485.059 514.64 485.064C515.125 485.111 515.686 485.063 516.203 484.85C517.144 484.463 517.733 483.613 517.817 482.058C517.925 480.053 517.843 478.459 517.642 477.247C517.594 476.961 517.544 476.721 517.494 476.527C517.465 476.418 517.445 476.351 517.436 476.326C517.333 476.034 517.486 475.713 517.778 475.61C518.071 475.507 518.392 475.659 518.496 475.952C518.564 476.145 518.659 476.512 518.75 477.063C518.966 478.357 519.052 480.034 518.939 482.119C518.832 484.1 517.977 485.334 516.631 485.888C515.918 486.181 515.183 486.245 514.532 486.182C514.45 486.174 514.388 486.165 514.349 486.159Z" fill="#482D1F"/>
<path d="M523.66 451.295L519.802 449.611L522.537 455.186L523.66 451.295Z" fill="#482D1F"/>
<path d="M522.222 436.86L521.188 433.185C520.851 432.287 520.289 431.501 519.577 430.865C519.015 430.416 518.416 430.117 517.741 430.004C515.943 429.705 513.883 430.977 513.021 432.736C512.197 434.494 512.384 436.59 513.583 438.086C514.318 439.078 515.343 439.781 516.55 440.09C516.028 442.99 515.269 446.992 515.269 446.992C515.269 446.992 514.348 446.565 512.507 445.711C508.049 443.222 505.626 438.578 505.24 431.779C497.982 434.571 491.047 432.622 488.333 428.47C486.272 425.29 486.726 421.052 486.872 420.463C488.333 414.575 493.353 413.691 493.353 413.691C493.353 413.691 500.583 409.986 508.301 421.286C508.33 421.329 508.359 421.372 508.388 421.416C509.229 420.549 510.267 419.916 511.373 419.453C514.482 418.181 516.692 419.079 522.612 419.341C523.81 419.416 525.609 419.453 527.856 419.378C528.044 419.378 528.194 419.378 528.343 419.378C529.692 419.341 536.984 419.303 540.469 424.915C540.431 425.028 540.379 425.132 540.294 425.29C540.294 425.29 533.06 437.767 522.222 436.86ZM536.548 435.729C535.799 435.804 534.562 435.841 533.588 435.43C531.902 434.794 533.701 434.008 535.274 434.158C536.023 434.195 536.548 434.607 536.885 434.943C537.11 435.243 536.922 435.692 536.548 435.729ZM542.879 436.515C542.092 436.665 540.931 436.814 539.882 436.478C538.121 435.991 539.807 435.018 541.418 435.056C542.242 435.093 542.767 435.392 543.141 435.729C543.404 435.991 543.254 436.44 542.879 436.515Z" fill="#482D1F"/>
<path d="M539.507 440.406C539.245 439.92 539.507 438.91 539.694 438.274C539.807 437.825 540.294 437.563 540.706 437.637C540.968 437.712 541.268 437.899 541.268 438.423C541.343 439.695 539.844 441.229 539.507 440.406ZM533.363 439.546C533.063 439.059 533.363 438.049 533.55 437.413C533.663 436.964 534.15 436.702 534.562 436.777C534.824 436.852 535.124 437.039 535.124 437.563C535.199 438.835 533.738 440.369 533.363 439.546Z" fill="#482D1F"/>
<path d="M539.529 437.52C539.588 437.322 539.475 437.113 539.277 437.054C539.079 436.995 538.87 437.108 538.811 437.306L538.174 439.439L538.163 439.486L537.526 443.453C537.524 443.467 537.492 443.488 537.425 443.478C537.036 443.385 536.584 443.274 536.103 443.149C535.902 443.098 535.698 443.218 535.646 443.418C535.595 443.618 535.715 443.822 535.915 443.874C536.402 443.999 536.859 444.112 537.286 444.213C537.771 444.284 538.193 444.01 538.266 443.573L538.899 439.629L539.529 437.52Z" fill="#482D1F"/>
<path d="M523.66 451.482L520.738 450.022L522.012 456.907L523.66 451.482Z" fill="#482D1F"/>
<path d="M534.824 446.804C534.562 446.729 533.925 446.505 533.85 446.056C533.85 445.981 533.813 445.869 533.85 445.794C533.963 445.607 535.161 445.794 535.161 445.794C536.66 446.056 537.072 446.019 537.147 446.243C537.184 446.355 537.147 446.505 536.81 446.804C536.398 447.366 535.199 446.954 534.824 446.804Z" fill="#482D1F"/>
<path d="M867.216 664.719H918.896C919.833 664.719 920.582 665.467 920.582 666.403C920.582 667.338 919.833 668.086 918.896 668.086H859.367H815.535C814.599 668.086 813.85 667.338 813.85 666.403C813.85 665.467 814.599 664.719 815.535 664.719H867.216Z" fill="#FF5645"/>
<path d="M815.91 664.719H815.536C815.427 664.719 815.321 664.729 815.219 664.748C815.113 664.569 815.035 664.371 814.99 664.158V664.12C814.99 663.933 814.953 663.746 814.99 663.559C815.028 663.335 815.028 663.147 815.103 662.923C815.354 662.055 816 661.038 817.043 659.872C817.635 659.21 818.33 658.647 819.101 658.207C820.822 657.225 822.174 656.515 823.157 656.076C826.604 654.504 834.246 651.286 836.532 650.126C839.491 648.63 843.575 646.085 847.845 641.521C848.183 641.259 848.557 641.146 848.969 641.146L870.456 641.296C871.543 641.296 872.404 642.194 872.33 643.317L874.136 653.451C876.038 652.63 877.749 651.838 879.86 650.613C881.621 649.603 884.093 647.956 886.865 645.487C888.401 644.14 889.975 642.793 891.511 641.446L914.7 641.146L919.471 664.755C919.553 664.772 919.633 664.795 919.71 664.823L919.733 664.938C919.495 664.803 919.219 664.724 918.925 664.719C918.915 664.719 918.906 664.719 918.896 664.719H867.216H858.622H815.91Z" fill="#474961"/>
<path opacity="0.176986" d="M867.328 664.719H867.216H815.536C815.427 664.719 815.321 664.729 815.219 664.748C815.113 664.569 815.035 664.371 814.99 664.158V664.12C814.99 663.933 814.953 663.746 814.99 663.559C815.028 663.335 815.028 663.147 815.103 662.923C815.354 662.055 816 661.038 817.043 659.872C817.635 659.21 818.33 658.647 819.101 658.207C820.822 657.225 822.174 656.515 823.157 656.076C826.604 654.504 834.246 651.286 836.532 650.126C839.491 648.63 843.575 646.085 847.845 641.521C848.183 641.259 848.557 641.146 848.969 641.146L870.456 641.296C871.543 641.296 872.404 642.194 872.33 643.317L874.152 653.541C872.159 654.398 869.937 655.306 866.823 656.787C865.024 657.647 863.301 658.62 861.615 659.705C860.791 660.453 859.367 661.988 858.918 663.784C858.843 664.083 858.843 664.382 858.805 664.644C858.805 664.67 858.819 664.694 858.847 664.719H867.441H867.328ZM919.733 664.938C919.495 664.803 919.219 664.724 918.925 664.719L919.121 664.719C919.329 664.719 919.527 664.756 919.71 664.823L919.733 664.938Z" fill="#444444"/>
<path d="M865.778 528.959C866.423 528.856 867.033 528.823 867.609 528.859L936.129 528.597L967.523 528.522C968.797 528.597 974.171 530.239 975.407 531.645C976.605 532.281 984.269 540.196 982.996 554.901C982.771 557.371 982.284 562.871 979.137 568.109C975.84 573.572 970.296 577.576 963.515 579.858C957.521 581.879 950.515 582.59 943.247 581.804C927.887 579.035 912.565 576.304 897.205 573.535V574.096L897.28 574.358C897.28 574.358 899.153 577.875 900.764 581.504C902.375 585.096 904.623 602.084 904.623 602.196C908.294 608.033 912.003 615.928 914.85 625.881C915.974 629.884 916.574 633.027 916.798 634.225C917.251 636.792 917.61 639.893 917.876 643.527C917.88 643.582 917.882 643.636 917.882 643.691C917.882 644.931 916.876 645.936 915.635 645.936C915.271 645.936 914.984 645.936 914.775 645.936L881.471 645.899L871.228 645.848C870.886 645.938 870.527 645.986 870.158 645.986L842.81 645.874H840.6C838.427 645.874 836.591 644.153 836.479 641.983C836.216 637.605 835.879 631.843 835.467 625.183C834.343 608.383 833.744 603.032 833.069 590.086C832.957 587.916 832.845 585.97 832.77 584.137C832.47 575.418 831.683 567.262 830.147 556.598C829.286 550.686 828.874 547.019 828.836 543.914C828.799 541.033 829.66 538.189 831.309 535.832C832.133 534.672 833.069 533.661 834.193 532.801C837.078 530.593 839.144 529.091 846.381 528.984C852.108 528.9 858.733 528.926 865.778 528.959Z" fill="#3ABF7C"/>
<path opacity="0.176986" d="M865.979 528.929C865.886 528.941 865.793 528.956 865.699 528.971C863.076 529.42 860.117 530.954 857.831 532.713C856.708 533.574 855.733 534.584 854.947 535.744C853.298 538.064 852.437 540.832 852.437 543.676V543.863C852.474 546.969 852.886 550.636 853.71 556.547C855.246 567.211 856.033 575.331 856.333 584.086C856.408 585.882 856.52 587.865 856.633 590.035C857.269 602.944 857.906 608.295 859.03 625.132C859.48 631.792 859.817 637.517 860.042 641.932C860.154 644.102 861.99 645.824 864.163 645.824H866.373L871.106 645.847C870.801 645.918 870.484 645.955 870.158 645.955L842.81 645.843H840.6C838.427 645.843 836.591 644.122 836.479 641.952C836.216 637.574 835.879 631.812 835.467 625.152C834.343 608.352 833.744 603.001 833.069 590.055C832.957 587.885 832.845 585.939 832.77 584.106C832.47 575.388 831.683 567.231 830.147 556.567C829.286 550.655 828.874 546.988 828.836 543.883C828.799 541.002 829.66 538.158 831.309 535.801C832.133 534.641 833.069 533.631 834.193 532.77C837.078 530.562 839.144 529.06 846.381 528.953C852.163 528.868 858.859 528.895 865.979 528.929L865.979 528.929Z" fill="#444444"/>
<path d="M897.019 572.702C896.554 572.245 896.07 571.768 895.564 571.268C895.427 571.132 895.427 571.132 895.29 570.997C893.862 569.584 892.694 568.42 890.429 566.158C890.137 565.866 889.662 565.866 889.37 566.158C889.077 566.45 889.077 566.924 889.37 567.216C891.636 569.48 892.805 570.645 894.235 572.06C894.372 572.195 894.372 572.195 894.509 572.331C895.016 572.833 895.502 573.311 895.968 573.769C896.263 574.059 896.737 574.055 897.027 573.76C897.317 573.465 897.314 572.992 897.019 572.702Z" fill="#482D1F"/>
<path d="M946.199 451.317C948.405 450.569 950.809 450.217 953.306 450.349C963.233 450.836 970.876 458.73 970.389 467.972C970.15 472.491 967.997 476.495 964.697 479.339L972.993 509.627C974.267 514.417 973.817 519.281 971.944 523.471C971.682 524.07 971.382 524.669 971.082 525.23C970.745 525.829 970.37 526.427 969.996 526.989C969.584 527.587 969.134 528.186 968.647 528.747H927.85C927.513 528.186 927.176 527.625 926.876 526.989C926.576 526.427 926.314 525.829 926.089 525.23C925.864 524.669 925.677 524.07 925.49 523.471C925.452 523.359 925.415 523.247 925.377 523.135L914.771 486.211L907.032 487.062C906.357 487.137 905.72 486.688 905.645 486.052L905.308 483.433C905.294 483.315 905.3 483.201 905.322 483.091C904.05 482.319 902.884 481.393 901.899 480.327C900.476 478.793 899.389 476.997 898.752 474.939C896.205 466.782 901.862 458.064 911.377 455.52C915.207 454.496 919.086 454.617 922.519 455.66C923.975 454.65 925.57 453.872 927.288 453.39L935.492 450.958C939.27 450.398 942.903 450.528 946.199 451.317Z" fill="#FF5645"/>
<path opacity="0.176986" d="M914.715 486.217L907.032 487.062C906.357 487.137 905.72 486.688 905.645 486.052L905.308 483.432C905.294 483.315 905.3 483.201 905.322 483.091C904.05 482.319 902.884 481.393 901.899 480.327C900.476 478.793 899.389 476.997 898.752 474.939C896.205 466.782 901.862 458.064 911.377 455.52C915.228 454.49 919.129 454.618 922.576 455.677C914.825 460.983 910.98 472.877 913.542 482.132L914.715 486.217Z" fill="#444444"/>
<path d="M908.219 457.169C908.219 457.169 907.507 460.013 911.291 459.227C915.075 458.441 916.161 458.067 916.161 458.067L915.187 455.485L908.219 457.169Z" fill="#482D1F"/>
<path d="M921.264 449.74C921.141 449.773 921.018 449.804 920.897 449.834L921.281 449.778L921.264 449.74ZM931.291 443.704L932.233 443.325L936.766 451.145L929.293 453.483L936.616 488.225C936.616 488.225 937.239 485.717 938.036 481.196C938.074 481.208 938.112 481.219 938.152 481.228L958.869 485.83C958.956 485.849 959.044 485.859 959.13 485.861C958.405 488.75 957.632 492.225 956.809 495.82C954.673 505.1 954.336 509.402 950.927 515.539C947.031 522.536 943.434 522.723 942.011 523.247C938.826 524.481 935.642 524.294 933.657 523.808C931.274 523.232 926.91 522.304 923.207 515.579L925.377 523.134C925.415 523.247 925.452 523.359 925.49 523.471C925.677 524.07 925.864 524.668 926.089 525.23C926.314 525.828 926.576 526.427 926.876 526.988C927.175 527.624 927.513 528.186 927.85 528.747H932.649L870.471 528.825C870.297 528.825 870.136 528.766 870.009 528.667C859.697 522.443 854.589 517.692 854.686 514.414C857.806 513.94 862.257 513.289 868.042 512.462C871.636 511.948 875.286 511.958 878.877 512.493L890.169 514.174C898.617 511.47 909.891 507.918 912.706 507.306L907.872 486.969L914.771 486.211L918.015 497.504C916.12 484.132 916.61 470.198 914.897 456.783L910.954 456.869C908.631 457.805 903.761 459.376 903.236 456.046C903.236 456.046 909.68 453.39 914.213 451.444L914.55 451.145C914.85 450.883 915.112 450.733 915.487 450.621C915.562 450.583 915.637 450.583 915.712 450.583L917.51 450.322L917.762 450.285C917.164 450.314 916.748 450.299 916.598 450.284C913.469 450.06 909.818 444.335 908.178 436.066C908.029 435.392 907.992 434.719 907.918 434.045L907.62 427.348C907.545 425.851 907.843 424.354 908.551 423.045C908.849 422.484 909.147 421.96 909.482 421.548C913.32 416.385 920.398 416.946 921.665 417.096C921.814 417.096 921.963 417.133 922.112 417.133C923.528 417.47 924.794 417.582 926.135 417.545C926.732 417.545 927.216 418.031 927.253 418.63L927.439 428.208C927.477 429.106 932.022 427.385 932.022 427.348C934.203 425.701 936.94 434.569 935.822 435.879C935.002 436.777 932.692 438.049 932.022 438.273C931.612 438.423 931.314 438.76 931.239 439.134C931.495 441.029 931.512 442.552 931.291 443.704Z" fill="#DB9E75"/>
<path opacity="0.2" d="M907.871 487.001L914.771 486.242L925.377 523.166C925.414 523.278 925.452 523.39 925.489 523.502C925.676 524.101 925.864 524.7 926.088 525.261C926.313 525.859 926.575 526.458 926.875 527.019C927.175 527.655 927.512 528.217 927.849 528.778H932.648L870.47 528.856C870.296 528.857 870.136 528.797 870.008 528.698C859.696 522.474 854.589 517.724 854.686 514.446C857.805 513.971 862.257 513.321 868.041 512.493C871.636 511.979 875.286 511.989 878.877 512.524L890.168 514.205C898.617 511.501 909.89 507.949 912.705 507.337L907.871 487.001Z" fill="#8C2A00"/>
<path d="M852.991 519.527C857.012 514.585 865.287 510.582 879.14 519.801C881.252 521.159 880.537 525.613 878.213 525.663L854.263 526.066C852.464 526.126 851.651 521.19 852.991 519.527Z" fill="#474961"/>
<path d="M942.801 426.088C947.606 429.239 952.193 433.869 951.377 436.926C950.74 439.396 948.342 440.705 945.907 442.052C943.941 443.13 940.309 444.797 935.08 445.146C935.08 445.15 935.08 445.154 935.08 445.158C933.844 445.345 932.645 445.532 931.409 445.719C930.772 445.794 930.173 445.345 930.135 444.709C930.323 443.362 930.51 442.015 930.697 440.668C930.865 439.996 931.043 439.147 931.151 438.237C931.749 438.093 933.083 437.707 934.106 436.515C935.23 435.205 935.83 433.222 935.08 431.314C934.406 429.48 932.533 428.059 930.735 428.208C929.723 428.283 928.936 428.844 928.824 428.919C928.011 429.534 927.335 430.375 926.967 430.879C925.203 430.196 922.467 428.737 920.208 425.851C919.683 425.202 919.071 424.242 918.372 422.97C914.64 423.815 911.506 423.603 908.969 422.334C909.523 421.28 910.386 420.327 911.56 419.475C913.32 418.196 913.514 418.042 915.735 417.419C917.126 417.029 919.755 416.905 921.637 417.096H921.706C923.841 417.32 925.602 417.395 926.764 417.395C932.458 417.507 934.668 416.759 937.553 418.181C938.077 418.443 939.314 419.116 940.4 420.388C941.94 422.185 942.57 424.267 942.801 426.088ZM908.865 438.954C910.283 444.008 911.791 445.869 911.599 445.869C911.407 445.869 910.908 446.131 907.049 445.046C905.139 444.522 903.34 443.998 902.516 442.464C901.355 440.294 904.816 435.81 907.888 432.817C907.888 435.033 908.255 436.704 908.865 438.954ZM906.608 431.538C906.234 431.464 906.084 431.015 906.346 430.753C906.683 430.453 907.245 430.079 907.995 430.042C909.531 429.967 911.216 430.865 909.568 431.389C908.519 431.763 907.32 431.651 906.608 431.538ZM913.876 431.538C913.502 431.464 913.352 431.015 913.651 430.753C913.989 430.453 914.551 430.079 915.337 430.042C916.873 429.967 918.559 430.902 916.911 431.389C915.787 431.763 914.626 431.651 913.876 431.538Z" fill="#482D1F"/>
<path d="M909.418 434.419C909.493 435.056 909.568 436.103 909.231 436.552C908.744 437.226 907.582 435.505 907.845 434.307C907.957 433.783 908.219 433.634 908.519 433.634C908.969 433.634 909.343 433.97 909.418 434.419ZM916.087 434.195C916.199 434.831 916.274 435.879 915.899 436.328C915.412 437.001 914.251 435.28 914.513 434.083C914.626 433.559 914.888 433.409 915.187 433.409C915.637 433.409 916.012 433.746 916.087 434.195Z" fill="#482D1F"/>
<path d="M936.19 488.421C936.102 488.124 936.272 487.812 936.569 487.724C936.867 487.636 937.18 487.806 937.268 488.103L940.977 500.638C941.064 500.935 940.894 501.247 940.597 501.335C940.299 501.423 939.987 501.253 939.899 500.956L936.19 488.421ZM961.561 481.971C961.571 482.037 961.569 482.106 961.553 482.175L960.917 484.979C960.7 485.954 959.726 486.558 958.748 486.34C958.445 486.273 958.254 485.973 958.321 485.671C958.388 485.368 958.688 485.177 958.991 485.245C959.369 485.329 959.738 485.1 959.82 484.733L960.367 482.322C960.267 482.27 960.182 482.186 960.128 482.077C959.989 481.8 960.101 481.463 960.379 481.324C961.979 480.525 963.467 479.473 964.734 478.243C964.957 478.027 965.313 478.033 965.529 478.255C965.745 478.477 965.74 478.833 965.517 479.049C964.348 480.183 963.005 481.174 961.561 481.971ZM938.413 476.973C938.41 476.998 938.406 477.024 938.401 477.049L937.764 479.853C937.68 480.23 937.909 480.599 938.274 480.68C938.577 480.747 938.768 481.047 938.701 481.349C938.634 481.652 938.333 481.843 938.03 481.776C937.054 481.559 936.45 480.587 936.668 479.607L937.305 476.801C937.329 476.692 937.384 476.598 937.458 476.525C937.017 475.992 936.684 475.524 936.406 475.048C936.157 474.622 935.949 474.185 935.728 473.638C935.577 473.266 935.484 473.016 935.152 472.103C935.046 471.811 935.196 471.489 935.488 471.384C935.779 471.278 936.102 471.428 936.208 471.719C936.535 472.617 936.626 472.863 936.77 473.218C936.972 473.718 937.158 474.107 937.377 474.483C937.671 474.985 938.041 475.488 938.578 476.109C938.781 476.344 938.755 476.698 938.52 476.901C938.486 476.929 938.45 476.954 938.413 476.973ZM923.874 449.092C922.488 449.728 921.546 450.854 919.383 451.07C917.66 451.481 916.199 450.995 915.45 450.621C915.525 450.583 915.6 450.583 915.674 450.583L917.473 450.322C918.334 450.322 919.719 450.172 921.33 449.723L923.874 449.092Z" fill="#482D1F"/>
<path d="M914.176 441.753C914.438 441.679 915.075 441.454 915.187 441.042C915.187 440.968 915.225 440.855 915.187 440.781C915.037 440.556 914.55 440.668 913.876 440.743C912.677 440.855 911.703 440.743 911.703 440.743C911.703 440.743 912.003 441.491 912.19 441.679C912.602 442.277 913.801 441.903 914.176 441.753Z" fill="#482D1F"/>
<path d="M911.366 434.732L911.368 434.677L911.365 434.704L911.366 434.732ZM910.919 438.681L910.917 438.723C910.917 439.131 911.196 439.51 911.604 439.578C911.679 439.585 911.721 439.588 911.763 439.591C912.159 439.617 912.443 439.621 913.464 439.621C913.671 439.621 913.839 439.453 913.839 439.246C913.839 439.04 913.671 438.872 913.464 438.872C912.461 438.872 912.185 438.868 911.811 438.844C911.772 438.842 911.734 438.839 911.695 438.836C911.703 438.836 911.672 438.793 911.666 438.737L912.113 434.761L912.115 434.706L912.04 432.499C912.033 432.292 911.86 432.13 911.653 432.137C911.446 432.144 911.284 432.318 911.291 432.524L911.365 434.704L910.919 438.681Z" fill="#482D1F"/>
<path d="M972.693 523.659H494.289C492.841 523.659 491.667 524.831 491.667 526.278C491.667 527.724 492.841 528.897 494.289 528.897H972.693C974.141 528.897 975.315 527.724 975.315 526.278C975.315 524.831 974.141 523.659 972.693 523.659Z" fill="#D8DEED"/>
<path d="M791.849 518.047L795.452 503.528H768.407C765.598 503.528 763.274 501.396 763.274 498.814V457.693C763.237 455.074 765.523 452.941 768.37 452.941H850.676C853.486 452.941 855.809 455.074 855.809 457.655V498.814C855.809 501.396 853.486 503.528 850.676 503.528H817.718L816.231 518.047H825.989C827.487 518.047 828.648 519.244 828.648 520.703C828.648 522.2 827.45 523.36 825.989 523.36H784.217C782.719 523.36 781.557 522.163 781.557 520.703C781.482 519.244 782.719 518.047 784.217 518.047H791.849Z" fill="#474961"/>
<path fill-rule="evenodd" clip-rule="evenodd" d="M818.834 492.946L818.945 518.084H816.259L818.834 492.946Z" fill="white"/>
<path d="M781.631 296.165H658.377C654.239 296.165 650.885 299.515 650.885 303.648V394.571C650.885 398.704 654.239 402.054 658.377 402.054H781.631C785.769 402.054 789.124 398.704 789.124 394.571V303.648C789.124 299.515 785.769 296.165 781.631 296.165Z" fill="#F2F6FB"/>
<path d="M733.033 375.966C746.42 368.248 751.021 351.181 743.311 337.845C735.601 324.51 718.499 319.956 705.113 327.673C691.726 335.391 687.125 352.458 694.835 365.794C702.545 379.129 719.647 383.683 733.033 375.966ZM728.559 368.227C719.452 373.477 707.826 370.381 702.589 361.323C697.352 352.265 700.48 340.663 709.587 335.412C718.694 330.161 730.32 333.257 735.557 342.316C740.795 351.374 737.666 362.976 728.559 368.227Z" fill="#E1E5F0"/>
<path d="M702.876 323.803C687.35 332.755 682.012 352.554 690.958 368.028C699.905 383.502 719.745 388.786 735.271 379.834C750.797 370.883 756.135 351.084 747.188 335.61L739.435 340.08C745.908 351.277 742.043 365.611 730.797 372.096C719.55 378.58 705.186 374.755 698.712 363.558C692.238 352.361 696.103 338.026 707.35 331.542L702.876 323.803Z" fill="#474BFF"/>
<path d="M702.64 322.549C686.692 331.744 681.208 352.084 690.399 367.981C699.59 383.878 719.971 389.306 735.92 380.11L730.558 370.837C719.737 377.076 705.918 373.396 699.69 362.624C693.463 351.853 697.181 338.061 708.002 331.822L702.64 322.549Z" fill="#D8DEED"/>
<path d="M650.885 302.154C650.885 298.846 653.569 296.165 656.88 296.165H783.128C786.439 296.165 789.124 298.845 789.124 302.154V308.142H650.885V302.154Z" fill="#E1E5F0"/>
<path d="M658.928 304.876C660.359 304.876 661.518 303.718 661.518 302.29C661.518 300.861 660.359 299.704 658.928 299.704C657.498 299.704 656.338 300.861 656.338 302.29C656.338 303.718 657.498 304.876 658.928 304.876Z" fill="#FF5645"/>
<path d="M667.381 304.876C668.811 304.876 669.971 303.718 669.971 302.29C669.971 300.861 668.811 299.704 667.381 299.704C665.95 299.704 664.791 300.861 664.791 302.29C664.791 303.718 665.95 304.876 667.381 304.876Z" fill="#FFCB3D"/>
<path d="M676.106 304.876C677.536 304.876 678.696 303.718 678.696 302.29C678.696 300.861 677.536 299.704 676.106 299.704C674.675 299.704 673.516 300.861 673.516 302.29C673.516 303.718 674.675 304.876 676.106 304.876Z" fill="#3ABF7C"/>
</g>
<defs>
<clipPath id="clip0_21_377">
<rect width="1448" height="966" rx="50" fill="white"/>
</clipPath>
</defs>
</svg>
