<?xml version="1.0" encoding="UTF-8"?>
<svg width="800" height="600" viewBox="0 0 800 600" fill="none" xmlns="http://www.w3.org/2000/svg">
  <!-- Background shape -->
  <path d="M0 0h800v600H0z" fill="#F3F4F6"/>
  
  <!-- Desk -->
  <rect x="200" y="400" width="400" height="20" fill="#4B5563"/>
  
  <!-- Monitor -->
  <rect x="300" y="200" width="200" height="150" rx="10" fill="#1F2937"/>
  <rect x="310" y="210" width="180" height="130" rx="5" fill="#E5E7EB"/>
  
  <!-- Code lines -->
  <rect x="320" y="220" width="100" height="8" rx="4" fill="#9CA3AF"/>
  <rect x="320" y="240" width="140" height="8" rx="4" fill="#9CA3AF"/>
  <rect x="320" y="260" width="80" height="8" rx="4" fill="#9CA3AF"/>
  
  <!-- Person -->
  <circle cx="400" cy="320" r="30" fill="#6B7280"/>
  <rect x="370" y="360" width="60" height="80" rx="10" fill="#6B7280"/>
  
  <!-- Coffee cup -->
  <rect x="520" y="300" width="30" height="40" rx="5" fill="#4B5563"/>
  <path d="M520 310h30v5h-30z" fill="#6B7280"/>
  
  <!-- Window -->
  <rect x="100" y="100" width="120" height="200" rx="10" fill="#E5E7EB"/>
  <rect x="110" y="110" width="100" height="60" fill="#93C5FD"/>
  <rect x="110" y="180" width="100" height="60" fill="#93C5FD"/>
  
  <!-- Plants -->
  <path d="M600 350c0-20 10-40 30-40s30 20 30 40h-60z" fill="#34D399"/>
  <rect x="610" y="350" width="40" height="50" rx="5" fill="#6B7280"/>
</svg> 