<svg width="16" height="16" viewBox="0 0 16 16" fill="none" xmlns="http://www.w3.org/2000/svg">
<path d="M8.00054 12.1831L5.23387 13.8498C5.11165 13.9276 4.98387 13.9609 4.85054 13.9498C4.7172 13.9387 4.60054 13.8943 4.50054 13.8165C4.40054 13.7387 4.32276 13.6416 4.2672 13.5251C4.21165 13.4082 4.20054 13.2776 4.23387 13.1331L4.9672 9.98314L2.5172 7.86647C2.40609 7.76647 2.33676 7.65247 2.3092 7.52447C2.2812 7.39692 2.28942 7.27203 2.33387 7.14981C2.37831 7.02758 2.44498 6.92758 2.53387 6.8498C2.62276 6.77203 2.74498 6.72203 2.90054 6.69981L6.13387 6.41647L7.38387 3.4498C7.43942 3.31647 7.52565 3.21647 7.64254 3.1498C7.75898 3.08314 7.87831 3.0498 8.00054 3.0498C8.12276 3.0498 8.24231 3.08314 8.3592 3.1498C8.47565 3.21647 8.56165 3.31647 8.6172 3.4498L9.8672 6.41647L13.1005 6.69981C13.2561 6.72203 13.3783 6.77203 13.4672 6.8498C13.5561 6.92758 13.6228 7.02758 13.6672 7.14981C13.7116 7.27203 13.7201 7.39692 13.6925 7.52447C13.6645 7.65247 13.595 7.76647 13.4839 7.86647L11.0339 9.98314L11.7672 13.1331C11.8005 13.2776 11.7894 13.4082 11.7339 13.5251C11.6783 13.6416 11.6005 13.7387 11.5005 13.8165C11.4005 13.8943 11.2839 13.9387 11.1505 13.9498C11.0172 13.9609 10.8894 13.9276 10.7672 13.8498L8.00054 12.1831Z" fill="#8F65C7"/>
</svg>
